<svg id="SvgjsSvg1118" width="505.5" height="594.5" xmlns="http://www.w3.org/2000/svg" version="1.1" xmlns:xlink="http://www.w3.org/1999/xlink" xmlns:svgjs="http://svgjs.com/svgjs"><defs id="SvgjsDefs1119"><pattern patternUnits="userSpaceOnUse" id="pattern_mark_0" width="300" height="300"><text x="150" y="100" fill="rgba(229,229,229,0.8)" font-size="18" transform="rotate(-45, 150, 150)" style="dominant-baseline: middle; text-anchor: middle;"></text></pattern><pattern patternUnits="userSpaceOnUse" id="pattern_mark_1" width="300" height="300"><text x="150" y="200" fill="rgba(229,229,229,0.8)" font-size="18" transform="rotate(-45, 150, 150)" style="dominant-baseline: middle; text-anchor: middle;"></text></pattern><marker id="SvgjsMarker1139" markerWidth="14" markerHeight="10" refX="10" refY="5" viewBox="0 0 14 10" orient="auto" markerUnits="userSpaceOnUse" stroke-dasharray="0,0"><path id="SvgjsPath1140" d="M0,0 L14,5 L0,10 L0,0" fill="#5c5c5c" stroke="#5c5c5c" stroke-width="1"></path></marker><marker id="SvgjsMarker1143" markerWidth="14" markerHeight="10" refX="10" refY="5" viewBox="0 0 14 10" orient="auto" markerUnits="userSpaceOnUse" stroke-dasharray="0,0"><path id="SvgjsPath1144" d="M0,0 L14,5 L0,10 L0,0" fill="#5c5c5c" stroke="#5c5c5c" stroke-width="1"></path></marker><marker id="SvgjsMarker1157" markerWidth="14" markerHeight="10" refX="10" refY="5" viewBox="0 0 14 10" orient="auto" markerUnits="userSpaceOnUse" stroke-dasharray="0,0"><path id="SvgjsPath1158" d="M0,0 L14,5 L0,10 L0,0" fill="#5c5c5c" stroke="#5c5c5c" stroke-width="1"></path></marker><marker id="SvgjsMarker1169" markerWidth="14" markerHeight="10" refX="10" refY="5" viewBox="0 0 14 10" orient="auto" markerUnits="userSpaceOnUse" stroke-dasharray="0,0"><path id="SvgjsPath1170" d="M0,0 L14,5 L0,10 L0,0" fill="#5c5c5c" stroke="#5c5c5c" stroke-width="1"></path></marker><marker id="SvgjsMarker1183" markerWidth="14" markerHeight="10" refX="10" refY="5" viewBox="0 0 14 10" orient="auto" markerUnits="userSpaceOnUse" stroke-dasharray="0,0"><path id="SvgjsPath1184" d="M0,0 L14,5 L0,10 L0,0" fill="#5c5c5c" stroke="#5c5c5c" stroke-width="1"></path></marker><marker id="SvgjsMarker1193" markerWidth="14" markerHeight="10" refX="10" refY="5" viewBox="0 0 14 10" orient="auto" markerUnits="userSpaceOnUse" stroke-dasharray="0,0"><path id="SvgjsPath1194" d="M0,0 L14,5 L0,10 L0,0" fill="#5c5c5c" stroke="#5c5c5c" stroke-width="1"></path></marker><marker id="SvgjsMarker1197" markerWidth="14" markerHeight="10" refX="10" refY="5" viewBox="0 0 14 10" orient="auto" markerUnits="userSpaceOnUse" stroke-dasharray="0,0"><path id="SvgjsPath1198" d="M0,0 L14,5 L0,10 L0,0" fill="#5c5c5c" stroke="#5c5c5c" stroke-width="1"></path></marker><marker id="SvgjsMarker1207" markerWidth="14" markerHeight="10" refX="10" refY="5" viewBox="0 0 14 10" orient="auto" markerUnits="userSpaceOnUse" stroke-dasharray="0,0"><path id="SvgjsPath1208" d="M0,0 L14,5 L0,10 L0,0" fill="#5c5c5c" stroke="#5c5c5c" stroke-width="1"></path></marker><marker id="SvgjsMarker1211" markerWidth="14" markerHeight="10" refX="10" refY="5" viewBox="0 0 14 10" orient="auto" markerUnits="userSpaceOnUse" stroke-dasharray="0,0"><path id="SvgjsPath1212" d="M0,0 L14,5 L0,10 L0,0" fill="#5c5c5c" stroke="#5c5c5c" stroke-width="1"></path></marker></defs><rect id="svgbackgroundid" width="505.5" height="594.5" fill="transparent"></rect><rect id="SvgjsRect1121" width="505.5" height="594.5" fill="url(#pattern_mark_0)"></rect><rect id="SvgjsRect1122" width="505.5" height="594.5" fill="url(#pattern_mark_1)"></rect><g id="SvgjsG1123" transform="translate(60.5,25)"><path id="SvgjsPath1124" d="M 16.666666666666668 0L 83.33333333333333 0C 105.55555555555556 0 105.55555555555556 50 83.33333333333333 50L 16.666666666666668 50C -5.555555555555556 50 -5.555555555555556 0 16.666666666666668 0Z" stroke="rgba(255,230,204,1)" stroke-width="3" fill-opacity="1" fill="#ffffcc"></path><g id="SvgjsG1125"><text id="SvgjsText1126" font-family="微软雅黑" text-anchor="middle" font-size="15px" width="80px" fill="#323232" font-weight="700" align="middle" lineHeight="125%" anchor="middle" family="微软雅黑" size="15px" weight="700" font-style="" opacity="1" y="12.625" transform="rotate(0)"><tspan id="SvgjsTspan1127" dy="18" x="50"><tspan id="SvgjsTspan1128" style="text-decoration:;">MetaData</tspan></tspan></text></g></g><g id="SvgjsG1129" transform="translate(60.5,134)"><path id="SvgjsPath1130" d="M 0 0L 100 0L 100 42L 0 42Z" stroke="rgba(153,204,255,1)" stroke-width="2" fill-opacity="1" fill="#cce5ff"></path><g id="SvgjsG1131"><text id="SvgjsText1132" font-family="微软雅黑" text-anchor="middle" font-size="13px" width="80px" fill="#323232" font-weight="700" align="middle" lineHeight="125%" anchor="middle" family="微软雅黑" size="13px" weight="700" font-style="" opacity="1" y="1.875" transform="rotate(0)"><tspan id="SvgjsTspan1133" dy="16" x="50"><tspan id="SvgjsTspan1134" style="text-decoration:;">Data </tspan></tspan><tspan id="SvgjsTspan1135" dy="16" x="50"><tspan id="SvgjsTspan1136" style="text-decoration:;">Cleaning</tspan></tspan></text></g></g><g id="SvgjsG1137"><path id="SvgjsPath1138" d="M110.5 76.5L110.5 130.4" stroke="#5c5c5c" stroke-width="2" fill="none" marker-end="url(#SvgjsMarker1139)"></path></g><g id="SvgjsG1141"><path id="SvgjsPath1142" d="M161.5 155L208.5 155L208.5 155L252.89999999999998 155" stroke="#5c5c5c" stroke-width="2" fill="none" marker-end="url(#SvgjsMarker1143)"></path><rect id="SvgjsRect1145" width="45" height="16" x="184.7" y="147" fill="#ffffff"></rect><text id="SvgjsText1146" font-family="微软雅黑" text-anchor="middle" font-size="13px" width="45px" fill="#ff3333" font-weight="400" align="top" lineHeight="16px" anchor="middle" family="微软雅黑" size="13px" weight="400" font-style="" opacity="1" y="144.375" transform="rotate(0)"><tspan id="SvgjsTspan1147" dy="16" x="207.2"><tspan id="SvgjsTspan1148" style="text-decoration:;">Output</tspan></tspan></text></g><g id="SvgjsG1149" transform="translate(256.5,136)"><path id="SvgjsPath1150" d="M 0 33.25L 0 0L 95 0L 95 33.25Q 71.25 23.75 47.5 33.25Q 23.75 42.75 0 33.25Z" stroke="rgba(255,204,153,1)" stroke-width="2" fill-opacity="1" fill="#ffe6cc"></path><g id="SvgjsG1151"><text id="SvgjsText1152" font-family="微软雅黑" text-anchor="middle" font-size="13px" width="95px" fill="#323232" font-weight="700" align="middle" lineHeight="125%" anchor="middle" family="微软雅黑" size="13px" weight="700" font-style="" opacity="1" y="6.475000000000001" transform="rotate(0)"><tspan id="SvgjsTspan1153" dy="16" x="47.5"><tspan id="SvgjsTspan1154" style="text-decoration:;">Kopien</tspan></tspan></text></g></g><g id="SvgjsG1155"><path id="SvgjsPath1156" d="M110.5 177L110.5 250.39999999999998" stroke="#5c5c5c" stroke-width="2" fill="none" marker-end="url(#SvgjsMarker1157)"></path></g><g id="SvgjsG1159" transform="translate(60.5,254)"><path id="SvgjsPath1160" d="M 0 0L 100 0L 100 40L 0 40Z" stroke="rgba(153,204,255,1)" stroke-width="2" fill-opacity="1" fill="#cce5ff"></path><g id="SvgjsG1161"><text id="SvgjsText1162" font-family="微软雅黑" text-anchor="middle" font-size="13px" width="80px" fill="#323232" font-weight="700" align="middle" lineHeight="125%" anchor="middle" family="微软雅黑" size="13px" weight="700" font-style="" opacity="1" y="0.875" transform="rotate(0)"><tspan id="SvgjsTspan1163" dy="16" x="50"><tspan id="SvgjsTspan1164" style="text-decoration:;">Data </tspan></tspan><tspan id="SvgjsTspan1165" dy="16" x="50"><tspan id="SvgjsTspan1166" style="text-decoration:;">Analysis</tspan></tspan></text></g></g><g id="SvgjsG1167"><path id="SvgjsPath1168" d="M161.5 274L208.5 274L208.5 274L252.89999999999998 274" stroke="#5c5c5c" stroke-width="2" fill="none" marker-end="url(#SvgjsMarker1169)"></path><rect id="SvgjsRect1171" width="45" height="16" x="184.7" y="266" fill="#ffffff"></rect><text id="SvgjsText1172" font-family="微软雅黑" text-anchor="middle" font-size="13px" width="45px" fill="#ff3333" font-weight="400" align="top" lineHeight="16px" anchor="middle" family="微软雅黑" size="13px" weight="400" font-style="" opacity="1" y="263.375" transform="rotate(0)"><tspan id="SvgjsTspan1173" dy="16" x="207.2"><tspan id="SvgjsTspan1174" style="text-decoration:;">Output</tspan></tspan></text></g><g id="SvgjsG1175" transform="translate(256.5,254)"><path id="SvgjsPath1176" d="M 0 35L 0 0L 95 0L 95 35Q 71.25 25 47.5 35Q 23.75 45 0 35Z" stroke="rgba(255,204,153,1)" stroke-width="2" fill-opacity="1" fill="#ffe6cc"></path><g id="SvgjsG1177"><text id="SvgjsText1178" font-family="微软雅黑" text-anchor="middle" font-size="13px" width="95px" fill="#323232" font-weight="700" align="middle" lineHeight="125%" anchor="middle" family="微软雅黑" size="13px" weight="700" font-style="" opacity="1" y="7.375" transform="rotate(0)"><tspan id="SvgjsTspan1179" dy="16" x="47.5"><tspan id="SvgjsTspan1180" style="text-decoration:;">Ergebniss</tspan></tspan></text></g></g><g id="SvgjsG1181"><path id="SvgjsPath1182" d="M110.5 295L110.5 385.4" stroke="#5c5c5c" stroke-width="2" fill="none" marker-end="url(#SvgjsMarker1183)"></path></g><g id="SvgjsG1185" transform="translate(29.5,389)"><path id="SvgjsPath1186" d="M 0 0L 162 0L 162 35L 0 35Z" stroke="rgba(153,204,255,1)" stroke-width="2" fill-opacity="1" fill="#cce5ff"></path><g id="SvgjsG1187"><text id="SvgjsText1188" font-family="微软雅黑" text-anchor="middle" font-size="13px" width="142px" fill="#323232" font-weight="700" align="middle" lineHeight="125%" anchor="middle" family="微软雅黑" size="13px" weight="700" font-style="" opacity="1" y="6.875" transform="rotate(0)"><tspan id="SvgjsTspan1189" dy="16" x="81"><tspan id="SvgjsTspan1190" style="text-decoration:;">Archiverung</tspan></tspan></text></g></g><g id="SvgjsG1191"><path id="SvgjsPath1192" d="M304 170.25L304 211.625L304 211.625L304 250.39999999999998" stroke-dasharray="8,5" stroke="#5c5c5c" stroke-width="2" fill="none" marker-end="url(#SvgjsMarker1193)"></path></g><g id="SvgjsG1195"><path id="SvgjsPath1196" d="M304 290L304 377.2125" stroke-dasharray="8,5" stroke="#5c5c5c" stroke-width="2" fill="none" marker-end="url(#SvgjsMarker1197)"></path></g><g id="SvgjsG1199" transform="translate(245.25,380.8125)"><path id="SvgjsPath1200" d="M 17.125 0L 117.5 0L 100.375 51.375L 0 51.375L 17.125 0Z" stroke="rgba(255,204,153,1)" stroke-width="2" fill-opacity="1" fill="#ffe6cc"></path><g id="SvgjsG1201"><text id="SvgjsText1202" font-family="微软雅黑" text-anchor="middle" font-size="13px" width="83px" fill="#323232" font-weight="700" align="middle" lineHeight="125%" anchor="middle" family="微软雅黑" size="13px" weight="700" font-style="" opacity="1" y="15.0625" transform="rotate(0)"><tspan id="SvgjsTspan1203" dy="16" x="59.125"><tspan id="SvgjsTspan1204" style="text-decoration:;">Speicherung</tspan></tspan></text></g></g><g id="SvgjsG1205"><path id="SvgjsPath1206" d="M253.20937500000002 406.5L195.10000000000002 406.5" stroke="#5c5c5c" stroke-width="2" fill="none" marker-end="url(#SvgjsMarker1207)"></path></g><g id="SvgjsG1209"><path id="SvgjsPath1210" d="M110.5 425L110.5 513.4" stroke="#5c5c5c" stroke-width="2" fill="none" marker-end="url(#SvgjsMarker1211)"></path></g><g id="SvgjsG1213" transform="translate(25,517.5)"><path id="SvgjsPath1214" d="M 17.333333333333332 0L 153.66666666666666 0C 176.77777777777777 0 176.77777777777777 52 153.66666666666666 52L 17.333333333333332 52C -5.777777777777778 52 -5.777777777777778 0 17.333333333333332 0Z" stroke="rgba(255,230,204,1)" stroke-width="3" fill-opacity="1" fill="#ffffcc"></path><g id="SvgjsG1215"><text id="SvgjsText1216" font-family="微软雅黑" text-anchor="middle" font-size="15px" width="151px" fill="#323232" font-weight="700" align="middle" lineHeight="125%" anchor="middle" family="微软雅黑" size="15px" weight="700" font-style="" opacity="1" y="13.625" transform="rotate(0)"><tspan id="SvgjsTspan1217" dy="18" x="85.5"><tspan id="SvgjsTspan1218" style="text-decoration:;">Veröffentlichung</tspan></tspan></text></g></g><g id="SvgjsG1219" transform="translate(380.5,371.5)"><path id="SvgjsPath1220" d="M 16.666666666666668 0L 0 0L 0 70L 16.666666666666668 70" stroke="rgba(33,41,48,1)" stroke-width="2" fill="none"></path><path id="SvgjsPath1221" d="M 0 0L 100 0L 100 70L 0 70Z" stroke="none" fill="none"></path><g id="SvgjsG1222"><text id="SvgjsText1223" font-family="微软雅黑" text-anchor="start" font-size="13px" width="80px" fill="#323232" font-weight="400" align="middle" lineHeight="125%" anchor="start" family="微软雅黑" size="13px" weight="400" font-style="" opacity="1" y="24.375" transform="rotate(0)"><tspan id="SvgjsTspan1224" dy="16" x="10"><tspan id="SvgjsTspan1225" style="text-decoration:;">Online Save</tspan></tspan></text></g></g></svg>