<svg id="SvgjsSvg1006" width="501" height="641" xmlns="http://www.w3.org/2000/svg" version="1.1" xmlns:xlink="http://www.w3.org/1999/xlink" xmlns:svgjs="http://svgjs.com/svgjs"><defs id="SvgjsDefs1007"><pattern patternUnits="userSpaceOnUse" id="pattern_mark_0" width="300" height="300"><text x="150" y="100" fill="rgba(229,229,229,0.8)" font-size="18" transform="rotate(-45, 150, 150)" style="dominant-baseline: middle; text-anchor: middle;"></text></pattern><pattern patternUnits="userSpaceOnUse" id="pattern_mark_1" width="300" height="300"><text x="150" y="200" fill="rgba(229,229,229,0.8)" font-size="18" transform="rotate(-45, 150, 150)" style="dominant-baseline: middle; text-anchor: middle;"></text></pattern><marker id="SvgjsMarker1027" markerWidth="14" markerHeight="10" refX="10" refY="5" viewBox="0 0 14 10" orient="auto" markerUnits="userSpaceOnUse" stroke-dasharray="0,0"><path id="SvgjsPath1028" d="M0,0 L14,5 L0,10 L0,0" fill="#5c5c5c" stroke="#5c5c5c" stroke-width="1"></path></marker><marker id="SvgjsMarker1031" markerWidth="14" markerHeight="10" refX="10" refY="5" viewBox="0 0 14 10" orient="auto" markerUnits="userSpaceOnUse" stroke-dasharray="0,0"><path id="SvgjsPath1032" d="M0,0 L14,5 L0,10 L0,0" fill="#5c5c5c" stroke="#5c5c5c" stroke-width="1"></path></marker><marker id="SvgjsMarker1045" markerWidth="14" markerHeight="10" refX="10" refY="5" viewBox="0 0 14 10" orient="auto" markerUnits="userSpaceOnUse" stroke-dasharray="0,0"><path id="SvgjsPath1046" d="M0,0 L14,5 L0,10 L0,0" fill="#5c5c5c" stroke="#5c5c5c" stroke-width="1"></path></marker><marker id="SvgjsMarker1057" markerWidth="14" markerHeight="10" refX="10" refY="5" viewBox="0 0 14 10" orient="auto" markerUnits="userSpaceOnUse" stroke-dasharray="0,0"><path id="SvgjsPath1058" d="M0,0 L14,5 L0,10 L0,0" fill="#5c5c5c" stroke="#5c5c5c" stroke-width="1"></path></marker><marker id="SvgjsMarker1071" markerWidth="14" markerHeight="10" refX="10" refY="5" viewBox="0 0 14 10" orient="auto" markerUnits="userSpaceOnUse" stroke-dasharray="0,0"><path id="SvgjsPath1072" d="M0,0 L14,5 L0,10 L0,0" fill="#5c5c5c" stroke="#5c5c5c" stroke-width="1"></path></marker><marker id="SvgjsMarker1081" markerWidth="14" markerHeight="10" refX="10" refY="5" viewBox="0 0 14 10" orient="auto" markerUnits="userSpaceOnUse" stroke-dasharray="0,0"><path id="SvgjsPath1082" d="M0,0 L14,5 L0,10 L0,0" fill="#5c5c5c" stroke="#5c5c5c" stroke-width="1"></path></marker><marker id="SvgjsMarker1085" markerWidth="14" markerHeight="10" refX="10" refY="5" viewBox="0 0 14 10" orient="auto" markerUnits="userSpaceOnUse" stroke-dasharray="0,0"><path id="SvgjsPath1086" d="M0,0 L14,5 L0,10 L0,0" fill="#5c5c5c" stroke="#5c5c5c" stroke-width="1"></path></marker><marker id="SvgjsMarker1099" markerWidth="14" markerHeight="10" refX="10" refY="5" viewBox="0 0 14 10" orient="auto" markerUnits="userSpaceOnUse" stroke-dasharray="0,0"><path id="SvgjsPath1100" d="M0,0 L14,5 L0,10 L0,0" fill="#5c5c5c" stroke="#5c5c5c" stroke-width="1"></path></marker><marker id="SvgjsMarker1103" markerWidth="14" markerHeight="10" refX="10" refY="5" viewBox="0 0 14 10" orient="auto" markerUnits="userSpaceOnUse" stroke-dasharray="0,0"><path id="SvgjsPath1104" d="M0,0 L14,5 L0,10 L0,0" fill="#5c5c5c" stroke="#5c5c5c" stroke-width="1"></path></marker></defs><rect id="svgbackgroundid" width="501" height="641" fill="transparent"></rect><rect id="SvgjsRect1009" width="501" height="641" fill="url(#pattern_mark_0)"></rect><rect id="SvgjsRect1010" width="501" height="641" fill="url(#pattern_mark_1)"></rect><g id="SvgjsG1011" transform="translate(56,25)"><path id="SvgjsPath1012" d="M 16.666666666666668 0L 83.33333333333333 0C 105.55555555555556 0 105.55555555555556 50 83.33333333333333 50L 16.666666666666668 50C -5.555555555555556 50 -5.555555555555556 0 16.666666666666668 0Z" stroke="rgba(255,230,204,1)" stroke-width="3" fill-opacity="1" fill="#ffffcc"></path><g id="SvgjsG1013"><text id="SvgjsText1014" font-family="微软雅黑" text-anchor="middle" font-size="15px" width="80px" fill="#323232" font-weight="700" align="middle" lineHeight="125%" anchor="middle" family="微软雅黑" size="15px" weight="700" font-style="" opacity="1" y="12.625" transform="rotate(0)"><tspan id="SvgjsTspan1015" dy="18" x="50"><tspan id="SvgjsTspan1016" style="text-decoration:;">MetaData</tspan></tspan></text></g></g><g id="SvgjsG1017" transform="translate(56,134)"><path id="SvgjsPath1018" d="M 0 0L 100 0L 100 42L 0 42Z" stroke="rgba(153,204,255,1)" stroke-width="2" fill-opacity="1" fill="#cce5ff"></path><g id="SvgjsG1019"><text id="SvgjsText1020" font-family="微软雅黑" text-anchor="middle" font-size="13px" width="80px" fill="#323232" font-weight="700" align="middle" lineHeight="125%" anchor="middle" family="微软雅黑" size="13px" weight="700" font-style="" opacity="1" y="1.875" transform="rotate(0)"><tspan id="SvgjsTspan1021" dy="16" x="50"><tspan id="SvgjsTspan1022" style="text-decoration:;">Data </tspan></tspan><tspan id="SvgjsTspan1023" dy="16" x="50"><tspan id="SvgjsTspan1024" style="text-decoration:;">Cleaning</tspan></tspan></text></g></g><g id="SvgjsG1025"><path id="SvgjsPath1026" d="M106 76.5L106 130.4" stroke="#5c5c5c" stroke-width="2" fill="none" marker-end="url(#SvgjsMarker1027)"></path></g><g id="SvgjsG1029"><path id="SvgjsPath1030" d="M157 155L204 155L204 155L248.39999999999998 155" stroke="#5c5c5c" stroke-width="2" fill="none" marker-end="url(#SvgjsMarker1031)"></path><rect id="SvgjsRect1033" width="45" height="16" x="180.2" y="147" fill="#ffffff"></rect><text id="SvgjsText1034" font-family="微软雅黑" text-anchor="middle" font-size="13px" width="45px" fill="#ff3333" font-weight="400" align="top" lineHeight="16px" anchor="middle" family="微软雅黑" size="13px" weight="400" font-style="" opacity="1" y="144.375" transform="rotate(0)"><tspan id="SvgjsTspan1035" dy="16" x="202.7"><tspan id="SvgjsTspan1036" style="text-decoration:;">Output</tspan></tspan></text></g><g id="SvgjsG1037" transform="translate(252,136)"><path id="SvgjsPath1038" d="M 0 33.25L 0 0L 95 0L 95 33.25Q 71.25 23.75 47.5 33.25Q 23.75 42.75 0 33.25Z" stroke="rgba(255,204,153,1)" stroke-width="2" fill-opacity="1" fill="#ffe6cc"></path><g id="SvgjsG1039"><text id="SvgjsText1040" font-family="微软雅黑" text-anchor="middle" font-size="13px" width="95px" fill="#323232" font-weight="700" align="middle" lineHeight="125%" anchor="middle" family="微软雅黑" size="13px" weight="700" font-style="" opacity="1" y="6.475000000000001" transform="rotate(0)"><tspan id="SvgjsTspan1041" dy="16" x="47.5"><tspan id="SvgjsTspan1042" style="text-decoration:;">Kopien</tspan></tspan></text></g></g><g id="SvgjsG1043"><path id="SvgjsPath1044" d="M106 177L106 250.39999999999998" stroke="#5c5c5c" stroke-width="2" fill="none" marker-end="url(#SvgjsMarker1045)"></path></g><g id="SvgjsG1047" transform="translate(56,254)"><path id="SvgjsPath1048" d="M 0 0L 100 0L 100 40L 0 40Z" stroke="rgba(153,204,255,1)" stroke-width="2" fill-opacity="1" fill="#cce5ff"></path><g id="SvgjsG1049"><text id="SvgjsText1050" font-family="微软雅黑" text-anchor="middle" font-size="13px" width="80px" fill="#323232" font-weight="700" align="middle" lineHeight="125%" anchor="middle" family="微软雅黑" size="13px" weight="700" font-style="" opacity="1" y="0.875" transform="rotate(0)"><tspan id="SvgjsTspan1051" dy="16" x="50"><tspan id="SvgjsTspan1052" style="text-decoration:;">Data </tspan></tspan><tspan id="SvgjsTspan1053" dy="16" x="50"><tspan id="SvgjsTspan1054" style="text-decoration:;">Analysis</tspan></tspan></text></g></g><g id="SvgjsG1055"><path id="SvgjsPath1056" d="M157 274L204 274L204 274L248.39999999999998 274" stroke="#5c5c5c" stroke-width="2" fill="none" marker-end="url(#SvgjsMarker1057)"></path><rect id="SvgjsRect1059" width="45" height="16" x="180.2" y="266" fill="#ffffff"></rect><text id="SvgjsText1060" font-family="微软雅黑" text-anchor="middle" font-size="13px" width="45px" fill="#ff3333" font-weight="400" align="top" lineHeight="16px" anchor="middle" family="微软雅黑" size="13px" weight="400" font-style="" opacity="1" y="263.375" transform="rotate(0)"><tspan id="SvgjsTspan1061" dy="16" x="202.7"><tspan id="SvgjsTspan1062" style="text-decoration:;">Output</tspan></tspan></text></g><g id="SvgjsG1063" transform="translate(252,254)"><path id="SvgjsPath1064" d="M 0 35L 0 0L 95 0L 95 35Q 71.25 25 47.5 35Q 23.75 45 0 35Z" stroke="rgba(255,204,153,1)" stroke-width="2" fill-opacity="1" fill="#ffe6cc"></path><g id="SvgjsG1065"><text id="SvgjsText1066" font-family="微软雅黑" text-anchor="middle" font-size="13px" width="95px" fill="#323232" font-weight="700" align="middle" lineHeight="125%" anchor="middle" family="微软雅黑" size="13px" weight="700" font-style="" opacity="1" y="7.375" transform="rotate(0)"><tspan id="SvgjsTspan1067" dy="16" x="47.5"><tspan id="SvgjsTspan1068" style="text-decoration:;">Ergebniss</tspan></tspan></text></g></g><g id="SvgjsG1069"><path id="SvgjsPath1070" d="M106 295L106 461.4" stroke="#5c5c5c" stroke-width="2" fill="none" marker-end="url(#SvgjsMarker1071)"></path></g><g id="SvgjsG1073" transform="translate(25,465)"><path id="SvgjsPath1074" d="M 0 0L 162 0L 162 35L 0 35Z" stroke="rgba(153,204,255,1)" stroke-width="2" fill-opacity="1" fill="#cce5ff"></path><g id="SvgjsG1075"><text id="SvgjsText1076" font-family="微软雅黑" text-anchor="middle" font-size="13px" width="142px" fill="#323232" font-weight="700" align="middle" lineHeight="125%" anchor="middle" family="微软雅黑" size="13px" weight="700" font-style="" opacity="1" y="6.875" transform="rotate(0)"><tspan id="SvgjsTspan1077" dy="16" x="81"><tspan id="SvgjsTspan1078" style="text-decoration:;">Veröffentlichung</tspan></tspan></text></g></g><g id="SvgjsG1079"><path id="SvgjsPath1080" d="M299.5 170.25L299.5 211.625L299.5 211.625L299.5 250.39999999999998" stroke-dasharray="8,5" stroke="#5c5c5c" stroke-width="2" fill="none" marker-end="url(#SvgjsMarker1081)"></path></g><g id="SvgjsG1083"><path id="SvgjsPath1084" d="M299.5 290L299.5 453.2125" stroke-dasharray="8,5" stroke="#5c5c5c" stroke-width="2" fill="none" marker-end="url(#SvgjsMarker1085)"></path><rect id="SvgjsRect1087" width="78" height="16" x="260.5" y="363.60625" fill="#ffffff"></rect><text id="SvgjsText1088" font-family="微软雅黑" text-anchor="middle" font-size="13px" width="78px" fill="#ff0000" font-weight="400" align="top" lineHeight="16px" anchor="middle" family="微软雅黑" size="13px" weight="400" font-style="" opacity="1" y="360.98125" transform="rotate(0)"><tspan id="SvgjsTspan1089" dy="16" x="299.5"><tspan id="SvgjsTspan1090" style="text-decoration:;">Speicherung</tspan></tspan></text></g><g id="SvgjsG1091" transform="translate(240.75,456.8125)"><path id="SvgjsPath1092" d="M 17.125 0L 117.5 0L 100.375 51.375L 0 51.375L 17.125 0Z" stroke="rgba(255,204,153,1)" stroke-width="2" fill-opacity="1" fill="#ffe6cc"></path><g id="SvgjsG1093"><text id="SvgjsText1094" font-family="微软雅黑" text-anchor="middle" font-size="13px" width="83px" fill="#323232" font-weight="700" align="middle" lineHeight="125%" anchor="middle" family="微软雅黑" size="13px" weight="700" font-style="" opacity="1" y="15.0625" transform="rotate(0)"><tspan id="SvgjsTspan1095" dy="16" x="59.125"><tspan id="SvgjsTspan1096" style="text-decoration:;">Archiverung</tspan></tspan></text></g></g><g id="SvgjsG1097"><path id="SvgjsPath1098" d="M248.70937500000002 482.5L190.60000000000002 482.5" stroke="#5c5c5c" stroke-width="2" fill="none" marker-end="url(#SvgjsMarker1099)"></path></g><g id="SvgjsG1101"><path id="SvgjsPath1102" d="M106 501L106 561.9" stroke="#5c5c5c" stroke-width="2" fill="none" marker-end="url(#SvgjsMarker1103)"></path></g><g id="SvgjsG1105" transform="translate(56,566)"><path id="SvgjsPath1106" d="M 16.666666666666668 0L 83.33333333333333 0C 105.55555555555556 0 105.55555555555556 50 83.33333333333333 50L 16.666666666666668 50C -5.555555555555556 50 -5.555555555555556 0 16.666666666666668 0Z" stroke="rgba(255,230,204,1)" stroke-width="3" fill-opacity="1" fill="#ffffcc"></path><g id="SvgjsG1107"><text id="SvgjsText1108" font-family="微软雅黑" text-anchor="middle" font-size="15px" width="80px" fill="#323232" font-weight="700" align="middle" lineHeight="125%" anchor="middle" family="微软雅黑" size="15px" weight="700" font-style="" opacity="1" y="12.625" transform="rotate(0)"><tspan id="SvgjsTspan1109" dy="18" x="50"><tspan id="SvgjsTspan1110" style="text-decoration:;">End</tspan></tspan></text></g></g><g id="SvgjsG1111" transform="translate(376,447.5)"><path id="SvgjsPath1112" d="M 16.666666666666668 0L 0 0L 0 70L 16.666666666666668 70" stroke="rgba(33,41,48,1)" stroke-width="2" fill="none"></path><path id="SvgjsPath1113" d="M 0 0L 100 0L 100 70L 0 70Z" stroke="none" fill="none"></path><g id="SvgjsG1114"><text id="SvgjsText1115" font-family="微软雅黑" text-anchor="start" font-size="13px" width="80px" fill="#323232" font-weight="400" align="middle" lineHeight="125%" anchor="start" family="微软雅黑" size="13px" weight="400" font-style="" opacity="1" y="24.375" transform="rotate(0)"><tspan id="SvgjsTspan1116" dy="16" x="10"><tspan id="SvgjsTspan1117" style="text-decoration:;">Online Save</tspan></tspan></text></g></g></svg>